<svg width="170" height="25" viewBox="0 0 170 25" fill="none" xmlns="http://www.w3.org/2000/svg">
<path d="M15.395 7.62512H12.2051C12.1141 7.10486 11.9464 6.64398 11.7019 6.24247C11.4574 5.83531 11.1532 5.49036 10.7893 5.20761C10.4254 4.92486 10.0103 4.7128 9.54403 4.57142C9.08346 4.42439 8.58593 4.35088 8.05144 4.35088C7.10187 4.35088 6.26034 4.58839 5.52684 5.06341C4.79334 5.53277 4.21905 6.22268 3.80396 7.13313C3.38888 8.03793 3.18134 9.14349 3.18134 10.4498C3.18134 11.7787 3.38888 12.8984 3.80396 13.8089C4.22473 14.7137 4.79902 15.3979 5.52684 15.8616C6.26034 16.3197 7.09903 16.5487 8.04291 16.5487C8.56603 16.5487 9.05503 16.4808 9.50991 16.3451C9.97048 16.2037 10.3827 15.9973 10.7466 15.7259C11.1162 15.4545 11.4261 15.1208 11.6763 14.725C11.9322 14.3291 12.1084 13.8767 12.2051 13.3678L15.395 13.3847C15.2756 14.2104 15.0168 14.9851 14.6188 15.7089C14.2265 16.4328 13.7119 17.0718 13.0751 17.626C12.4382 18.1745 11.6934 18.6043 10.8404 18.9153C9.98754 19.2207 9.04081 19.3734 8.00027 19.3734C6.46503 19.3734 5.0947 19.0199 3.88926 18.3131C2.68381 17.6062 1.73424 16.5855 1.04055 15.2509C0.346849 13.9163 0 12.3159 0 10.4498C0 8.57799 0.349692 6.97762 1.04908 5.6487C1.74846 4.31412 2.70087 3.29339 3.90631 2.58652C5.11175 1.87964 6.47641 1.52621 8.00027 1.52621C8.97258 1.52621 9.87666 1.66193 10.7125 1.93337C11.5484 2.20481 12.2932 2.60348 12.9471 3.1294C13.601 3.64966 14.1384 4.28867 14.5591 5.04644C14.9856 5.79856 15.2642 6.65812 15.395 7.62512Z" fill="white"/>
<path d="M21.9261 19.3988C21.0959 19.3988 20.3482 19.2518 19.683 18.9577C19.0234 18.658 18.5003 18.2169 18.1136 17.6345C17.7326 17.052 17.5422 16.3338 17.5422 15.4799C17.5422 14.7448 17.6786 14.1368 17.9516 13.6562C18.2245 13.1755 18.5969 12.791 19.0689 12.5026C19.5408 12.2141 20.0725 11.9964 20.6638 11.8494C21.2608 11.6967 21.8778 11.5864 22.5146 11.5186C23.2822 11.4394 23.9048 11.3687 24.3825 11.3065C24.8601 11.2387 25.2069 11.1369 25.423 11.0012C25.6448 10.8598 25.7557 10.6421 25.7557 10.348V10.2971C25.7557 9.65809 25.5652 9.16328 25.1842 8.81267C24.8032 8.46206 24.2545 8.28675 23.5381 8.28675C22.7819 8.28675 22.182 8.45075 21.7385 8.77874C21.3006 9.10673 21.005 9.49409 20.8514 9.94084L17.9686 9.53368C18.1961 8.74198 18.5713 8.08035 19.0944 7.54878C19.6176 7.01155 20.2572 6.61005 21.0135 6.34426C21.7697 6.07282 22.6056 5.9371 23.521 5.9371C24.1522 5.9371 24.7805 6.01062 25.406 6.15765C26.0314 6.30468 26.6029 6.54784 27.1203 6.88714C27.6377 7.22079 28.0528 7.67601 28.3655 8.25282C28.684 8.82963 28.8432 9.55064 28.8432 10.4159V19.1359H25.8751V17.3461H25.7727C25.5851 17.708 25.3207 18.0473 24.9795 18.364C24.644 18.675 24.2204 18.9266 23.7087 19.1189C23.2026 19.3055 22.6084 19.3988 21.9261 19.3988ZM22.7278 17.1425C23.3476 17.1425 23.8849 17.0209 24.3398 16.7777C24.7947 16.5289 25.1444 16.2009 25.3889 15.7938C25.6391 15.3866 25.7642 14.9427 25.7642 14.462V12.9267C25.6675 13.0058 25.5026 13.0794 25.2695 13.1472C25.0421 13.2151 24.7862 13.2745 24.5019 13.3254C24.2176 13.3762 23.9361 13.4215 23.6575 13.4611C23.3789 13.5007 23.1372 13.5346 22.9325 13.5629C22.472 13.6251 22.0597 13.7269 21.6958 13.8682C21.3319 14.0096 21.0448 14.2075 20.8344 14.462C20.624 14.7108 20.5188 15.0332 20.5188 15.429C20.5188 15.9945 20.7263 16.4215 21.1414 16.7099C21.5565 16.9983 22.0853 17.1425 22.7278 17.1425Z" fill="white"/>
<path d="M31.9478 19.1359V6.10675H34.9415V8.27827H35.0779C35.3167 7.52616 35.7261 6.94652 36.3061 6.53936C36.8918 6.12655 37.5599 5.92014 38.3104 5.92014C38.481 5.92014 38.6715 5.92862 38.8819 5.94558C39.098 5.9569 39.2771 5.97669 39.4192 6.00496V8.82963C39.2884 8.78439 39.0809 8.74481 38.7966 8.71088C38.518 8.67129 38.2479 8.6515 37.9863 8.6515C37.4234 8.6515 36.9174 8.77308 36.4682 9.01625C36.0247 9.25376 35.675 9.58457 35.4191 10.0087C35.1632 10.4328 35.0353 10.922 35.0353 11.4762V19.1359H31.9478Z" fill="white"/>
<path d="M45.7926 19.3649C44.7634 19.3649 43.8423 19.1019 43.0291 18.576C42.216 18.0501 41.5735 17.2867 41.1016 16.2857C40.6296 15.2848 40.3937 14.069 40.3937 12.6383C40.3937 11.1906 40.6325 9.96911 41.1101 8.97383C41.5934 7.9729 42.2445 7.21796 43.0633 6.70901C43.8821 6.19441 44.7947 5.9371 45.8011 5.9371C46.5687 5.9371 47.1999 6.06717 47.6945 6.3273C48.1892 6.58177 48.5816 6.88997 48.8716 7.25189C49.1615 7.60815 49.3861 7.94463 49.5454 8.26131H49.6733V1.76372H52.7693V19.1359H49.733V17.0831H49.5454C49.3861 17.3998 49.1559 17.7362 48.8545 18.0925C48.5531 18.4431 48.1551 18.7428 47.6604 18.9917C47.1657 19.2405 46.5431 19.3649 45.7926 19.3649ZM46.654 16.8456C47.3079 16.8456 47.8651 16.6703 48.3257 16.3197C48.7863 15.9634 49.136 15.4686 49.3748 14.8352C49.6136 14.2019 49.733 13.4639 49.733 12.6213C49.733 11.7787 49.6136 11.0464 49.3748 10.4243C49.1416 9.80229 48.7948 9.31879 48.3342 8.97383C47.8793 8.62888 47.3193 8.4564 46.654 8.4564C45.966 8.4564 45.3917 8.63453 44.9311 8.9908C44.4706 9.34706 44.1237 9.83905 43.8906 10.4668C43.6575 11.0945 43.5409 11.8126 43.5409 12.6213C43.5409 13.4356 43.6575 14.1623 43.8906 14.8013C44.1294 15.4347 44.4791 15.9351 44.9397 16.3027C45.4059 16.6646 45.9774 16.8456 46.654 16.8456Z" fill="white"/>
<path d="M56.1959 19.1359V1.76372H59.3602V9.11804H67.4543V1.76372H70.6271V19.1359H67.4543V11.7561H59.3602V19.1359H56.1959Z" fill="white"/>
<path d="M73.9321 19.1359V6.10675H77.0196V19.1359H73.9321ZM75.4844 4.25757C74.9954 4.25757 74.5746 4.0964 74.2221 3.77407C73.8695 3.44608 73.6933 3.05306 73.6933 2.595C73.6933 2.13129 73.8695 1.73827 74.2221 1.41593C74.5746 1.08794 74.9954 0.92395 75.4844 0.92395C75.9791 0.92395 76.3998 1.08794 76.7467 1.41593C77.0992 1.73827 77.2755 2.13129 77.2755 2.595C77.2755 3.05306 77.0992 3.44608 76.7467 3.77407C76.3998 4.0964 75.9791 4.25757 75.4844 4.25757Z" fill="white"/>
<path d="M80.1946 24.0218V6.10675H83.2309V8.26131H83.41C83.5692 7.94463 83.7938 7.60815 84.0838 7.25189C84.3738 6.88997 84.7661 6.58177 85.2608 6.3273C85.7555 6.06717 86.3867 5.9371 87.1543 5.9371C88.1664 5.9371 89.079 6.19441 89.8921 6.70901C90.7109 7.21796 91.3591 7.9729 91.8367 8.97383C92.3201 9.96911 92.5617 11.1906 92.5617 12.6383C92.5617 14.069 92.3257 15.2848 91.8538 16.2857C91.3819 17.2867 90.7393 18.0501 89.9262 18.576C89.1131 19.1019 88.192 19.3649 87.1628 19.3649C86.4122 19.3649 85.7896 19.2405 85.2949 18.9917C84.8003 18.7428 84.4022 18.4431 84.1009 18.0925C83.8052 17.7362 83.5749 17.3998 83.41 17.0831H83.2821V24.0218H80.1946ZM83.2224 12.6213C83.2224 13.4639 83.3418 14.2019 83.5806 14.8352C83.8251 15.4686 84.1748 15.9634 84.6297 16.3197C85.0902 16.6703 85.6475 16.8456 86.3014 16.8456C86.9837 16.8456 87.5551 16.6646 88.0157 16.3027C88.4763 15.9351 88.8231 15.4347 89.0563 14.8013C89.2951 14.1623 89.4145 13.4356 89.4145 12.6213C89.4145 11.8126 89.2979 11.0945 89.0648 10.4668C88.8317 9.83905 88.4848 9.34706 88.0242 8.9908C87.5637 8.63453 86.9894 8.4564 86.3014 8.4564C85.6418 8.4564 85.0817 8.62888 84.6211 8.97383C84.1606 9.31879 83.8109 9.80229 83.5721 10.4243C83.3389 11.0464 83.2224 11.7787 83.2224 12.6213Z" fill="white"/>
<path d="M95.2057 24.0218V6.10675H98.2421V8.26131H98.4212C98.5804 7.94463 98.805 7.60815 99.095 7.25189C99.385 6.88997 99.7773 6.58177 100.272 6.3273C100.767 6.06717 101.398 5.9371 102.165 5.9371C103.178 5.9371 104.09 6.19441 104.903 6.70901C105.722 7.21796 106.37 7.9729 106.848 8.97383C107.331 9.96911 107.573 11.1906 107.573 12.6383C107.573 14.069 107.337 15.2848 106.865 16.2857C106.393 17.2867 105.75 18.0501 104.937 18.576C104.124 19.1019 103.203 19.3649 102.174 19.3649C101.423 19.3649 100.801 19.2405 100.306 18.9917C99.8114 18.7428 99.4134 18.4431 99.112 18.0925C98.8164 17.7362 98.5861 17.3998 98.4212 17.0831H98.2932V24.0218H95.2057ZM98.2335 12.6213C98.2335 13.4639 98.3529 14.2019 98.5918 14.8352C98.8363 15.4686 99.186 15.9634 99.6408 16.3197C100.101 16.6703 100.659 16.8456 101.313 16.8456C101.995 16.8456 102.566 16.6646 103.027 16.3027C103.487 15.9351 103.834 15.4347 104.067 14.8013C104.306 14.1623 104.426 13.4356 104.426 12.6213C104.426 11.8126 104.309 11.0945 104.076 10.4668C103.843 9.83905 103.496 9.34706 103.035 8.9908C102.575 8.63453 102.001 8.4564 101.313 8.4564C100.653 8.4564 100.093 8.62888 99.6323 8.97383C99.1717 9.31879 98.822 9.80229 98.5832 10.4243C98.3501 11.0464 98.2335 11.7787 98.2335 12.6213Z" fill="white"/>
<path d="M115.931 19.3903C114.652 19.3903 113.543 19.1104 112.605 18.5506C111.667 17.9907 110.939 17.2075 110.422 16.2009C109.91 15.1943 109.654 14.0181 109.654 12.6722C109.654 11.3263 109.91 10.1472 110.422 9.135C110.939 8.12276 111.667 7.33671 112.605 6.77687C113.543 6.21703 114.652 5.9371 115.931 5.9371C117.211 5.9371 118.319 6.21703 119.258 6.77687C120.196 7.33671 120.921 8.12276 121.433 9.135C121.95 10.1472 122.209 11.3263 122.209 12.6722C122.209 14.0181 121.95 15.1943 121.433 16.2009C120.921 17.2075 120.196 17.9907 119.258 18.5506C118.319 19.1104 117.211 19.3903 115.931 19.3903ZM115.948 16.9304C116.642 16.9304 117.222 16.741 117.688 16.3621C118.155 15.9775 118.501 15.4629 118.729 14.8183C118.962 14.1736 119.079 13.4554 119.079 12.6637C119.079 11.8664 118.962 11.1454 118.729 10.5007C118.501 9.85036 118.155 9.33293 117.688 8.94839C117.222 8.56385 116.642 8.37158 115.948 8.37158C115.238 8.37158 114.646 8.56385 114.174 8.94839C113.708 9.33293 113.358 9.85036 113.125 10.5007C112.898 11.1454 112.784 11.8664 112.784 12.6637C112.784 13.4554 112.898 14.1736 113.125 14.8183C113.358 15.4629 113.708 15.9775 114.174 16.3621C114.646 16.741 115.238 16.9304 115.948 16.9304Z" fill="white"/>
<path d="M125.398 17.3917V17.1314H126.958V17.3917H126.329V19.1359H126.026V17.3917H125.398Z" fill="white"/>
<path d="M127.303 17.1314H127.672L128.314 18.6896H128.337L128.979 17.1314H129.348V19.1359H129.058V17.6854H129.04L128.445 19.1329H128.205L127.611 17.6844H127.592V19.1359H127.303V17.1314Z" fill="white"/>
<path fill-rule="evenodd" clip-rule="evenodd" d="M138.587 3C138.587 1.34314 139.93 0 141.587 0H167C168.657 0 170 1.34315 170 3V16.2174C170 17.8742 168.657 19.2174 167 19.2174H141.587C139.93 19.2174 138.587 17.8742 138.587 16.2174V3ZM144.757 19.2174H149.993V24.0218H144.757V19.2174ZM163.83 19.2174H158.594V24.0218H163.83V19.2174Z" fill="white"/>
</svg>
