<svg width="184" height="26" viewBox="0 0 184 26" fill="none" xmlns="http://www.w3.org/2000/svg">
<path d="M16.6628 8.25303H13.2102C13.1118 7.68993 12.9302 7.19109 12.6656 6.75652C12.4009 6.31583 12.0717 5.94246 11.6778 5.63643C11.2839 5.33039 10.8347 5.10087 10.33 4.94785C9.83151 4.78871 9.293 4.70915 8.7145 4.70915C7.68673 4.70915 6.77589 4.96621 5.98199 5.48035C5.18808 5.98837 4.5665 6.7351 4.11723 7.72053C3.66797 8.69984 3.44334 9.89644 3.44334 11.3103C3.44334 12.7487 3.66797 13.9606 4.11723 14.946C4.57265 15.9253 5.19424 16.6659 5.98199 17.1678C6.77589 17.6636 7.68365 17.9115 8.70527 17.9115C9.27147 17.9115 9.80074 17.838 10.2931 17.6911C10.7916 17.5381 11.2378 17.3147 11.6316 17.0209C12.0317 16.7271 12.3671 16.366 12.6379 15.9376C12.9148 15.5091 13.1056 15.0195 13.2102 14.4686L16.6628 14.487C16.5335 15.3806 16.2535 16.2191 15.8227 17.0026C15.3981 17.786 14.8411 18.4777 14.1518 19.0775C13.4625 19.6712 12.6563 20.1364 11.7332 20.473C10.81 20.8035 9.78535 20.9688 8.65911 20.9688C6.99745 20.9688 5.51426 20.5862 4.20955 19.8212C2.90483 19.0561 1.87706 17.9513 1.12624 16.5068C0.375413 15.0623 0 13.3302 0 11.3103C0 9.28437 0.37849 7.55221 1.13547 6.11384C1.89245 4.66936 2.9233 3.56457 4.22801 2.79949C5.53272 2.0344 7.00976 1.65185 8.65911 1.65185C9.7115 1.65185 10.69 1.79875 11.5947 2.09254C12.4994 2.38634 13.3056 2.81785 14.0134 3.38707C14.7211 3.95018 15.3027 4.64182 15.7581 5.46199C16.2197 6.27604 16.5212 7.20639 16.6628 8.25303Z" fill="white"/>
<path d="M23.7318 20.9963C22.8333 20.9963 22.024 20.8372 21.3039 20.5189C20.59 20.1945 20.0238 19.7171 19.6053 19.0867C19.193 18.4562 18.9868 17.6789 18.9868 16.7547C18.9868 15.959 19.1345 15.301 19.4299 14.7808C19.7253 14.2605 20.1284 13.8443 20.6392 13.5321C21.15 13.22 21.7255 12.9843 22.3655 12.8252C23.0117 12.6599 23.6795 12.5406 24.3688 12.4671C25.1996 12.3814 25.8735 12.3049 26.3904 12.2376C26.9074 12.1642 27.2828 12.054 27.5167 11.9071C27.7567 11.7541 27.8767 11.5184 27.8767 11.2001V11.1451C27.8767 10.4534 27.6705 9.91786 27.2582 9.53838C26.8459 9.15889 26.252 8.96915 25.4765 8.96915C24.658 8.96915 24.0087 9.14665 23.5287 9.50165C23.0548 9.85665 22.7348 10.2759 22.5686 10.7595L19.4484 10.3188C19.6946 9.46187 20.1007 8.74575 20.6669 8.1704C21.2331 7.58893 21.9255 7.15436 22.744 6.86669C23.5625 6.5729 24.4672 6.426 25.4581 6.426C26.1412 6.426 26.8212 6.50557 27.4982 6.66471C28.1752 6.82385 28.7937 7.08704 29.3537 7.45428C29.9138 7.8154 30.363 8.30812 30.7015 8.93243C31.0462 9.55674 31.2185 10.3371 31.2185 11.2736V20.7117H28.0059V18.7745H27.8952C27.6921 19.1662 27.4059 19.5335 27.0366 19.8762C26.6735 20.2129 26.215 20.4852 25.6612 20.6934C25.1134 20.8953 24.4703 20.9963 23.7318 20.9963ZM24.5995 18.5542C25.2704 18.5542 25.8519 18.4226 26.3443 18.1594C26.8366 17.8901 27.2151 17.5351 27.4798 17.0944C27.7505 16.6537 27.8859 16.1732 27.8859 15.653V13.9912C27.7813 14.0769 27.6028 14.1564 27.3505 14.2299C27.1043 14.3033 26.8274 14.3676 26.5197 14.4227C26.212 14.4778 25.9073 14.5267 25.6058 14.5696C25.3042 14.6124 25.0426 14.6492 24.8211 14.6798C24.3226 14.7471 23.8764 14.8573 23.4825 15.0103C23.0887 15.1633 22.7779 15.3775 22.5502 15.653C22.3224 15.9223 22.2086 16.2711 22.2086 16.6996C22.2086 17.3117 22.4332 17.7738 22.8825 18.0859C23.3318 18.3981 23.9041 18.5542 24.5995 18.5542Z" fill="white"/>
<path d="M34.5787 20.7117V6.60962H37.819V8.95997H37.9667C38.2252 8.14592 38.6683 7.51855 39.296 7.07786C39.9299 6.63104 40.653 6.40764 41.4654 6.40764C41.65 6.40764 41.8562 6.41682 42.0839 6.43518C42.3178 6.44742 42.5117 6.46885 42.6655 6.49945V9.55674C42.524 9.50777 42.2993 9.46493 41.9916 9.4282C41.69 9.38536 41.3977 9.36394 41.1146 9.36394C40.5053 9.36394 39.9576 9.49553 39.4714 9.75872C38.9914 10.0158 38.6129 10.3739 38.336 10.8329C38.059 11.292 37.9205 11.8214 37.9205 12.4212V20.7117H34.5787Z" fill="white"/>
<path d="M49.5637 20.9596C48.4498 20.9596 47.4528 20.675 46.5727 20.1058C45.6927 19.5365 44.9972 18.7102 44.4864 17.6269C43.9756 16.5435 43.7202 15.2276 43.7202 13.679C43.7202 12.1121 43.9787 10.7901 44.4956 9.71282C45.0188 8.62945 45.7234 7.81234 46.6096 7.26148C47.4959 6.70449 48.4836 6.426 49.5729 6.426C50.4038 6.426 51.0869 6.56678 51.6223 6.84833C52.1578 7.12376 52.5824 7.45734 52.8963 7.84906C53.2101 8.23467 53.4532 8.59885 53.6256 8.94161H53.764V1.90892H57.1151V20.7117H53.8287V18.4899H53.6256C53.4532 18.8327 53.204 19.1968 52.8778 19.5824C52.5516 19.9619 52.1208 20.2863 51.5854 20.5556C51.05 20.8249 50.3761 20.9596 49.5637 20.9596ZM50.4961 18.2328C51.2038 18.2328 51.807 18.0431 52.3055 17.6636C52.804 17.278 53.1824 16.7424 53.4409 16.0569C53.6994 15.3714 53.8287 14.5727 53.8287 13.6607C53.8287 12.7487 53.6994 11.9561 53.4409 11.2828C53.1886 10.6095 52.8132 10.0862 52.3147 9.71282C51.8223 9.33945 51.2161 9.15277 50.4961 9.15277C49.7514 9.15277 49.1298 9.34557 48.6313 9.73118C48.1328 10.1168 47.7574 10.6493 47.5051 11.3287C47.2528 12.0081 47.1266 12.7854 47.1266 13.6607C47.1266 14.542 47.2528 15.3286 47.5051 16.0202C47.7636 16.7057 48.1421 17.2474 48.6406 17.6452C49.1452 18.037 49.7637 18.2328 50.4961 18.2328Z" fill="white"/>
<path d="M60.8238 20.7117V1.90892H64.2487V9.86889H73.0093V1.90892H76.4434V20.7117H73.0093V12.7242H64.2487V20.7117H60.8238Z" fill="white"/>
<path d="M80.0206 20.7117V6.60962H83.3624V20.7117H80.0206ZM81.7007 4.60815C81.1715 4.60815 80.7161 4.43371 80.3345 4.08483C79.9529 3.72983 79.7621 3.30444 79.7621 2.80867C79.7621 2.30677 79.9529 1.88138 80.3345 1.5325C80.7161 1.1775 81.1715 1 81.7007 1C82.2362 1 82.6916 1.1775 83.067 1.5325C83.4486 1.88138 83.6394 2.30677 83.6394 2.80867C83.6394 3.30444 83.4486 3.72983 83.067 4.08483C82.6916 4.43371 82.2362 4.60815 81.7007 4.60815Z" fill="white"/>
<path d="M86.7988 26V6.60962H90.0852V8.94161H90.2791C90.4514 8.59885 90.6945 8.23467 91.0084 7.84906C91.3222 7.45734 91.7469 7.12376 92.2823 6.84833C92.8177 6.56678 93.5009 6.426 94.3317 6.426C95.4272 6.426 96.4149 6.70449 97.295 7.26148C98.1812 7.81234 98.8828 8.62945 99.3998 9.71282C99.9229 10.7901 100.184 12.1121 100.184 13.679C100.184 15.2276 99.929 16.5435 99.4182 17.6269C98.9074 18.7102 98.212 19.5365 97.3319 20.1058C96.4519 20.675 95.4548 20.9596 94.3409 20.9596C93.5285 20.9596 92.8547 20.8249 92.3192 20.5556C91.7838 20.2863 91.353 19.9619 91.0268 19.5824C90.7068 19.1968 90.4576 18.8327 90.2791 18.4899H90.1406V26H86.7988ZM90.076 13.6607C90.076 14.5727 90.2052 15.3714 90.4637 16.0569C90.7283 16.7424 91.1068 17.278 91.5992 17.6636C92.0977 18.0431 92.7008 18.2328 93.4085 18.2328C94.1471 18.2328 94.7656 18.037 95.2641 17.6452C95.7626 17.2474 96.138 16.7057 96.3903 16.0202C96.6488 15.3286 96.778 14.542 96.778 13.6607C96.778 12.7854 96.6519 12.0081 96.3995 11.3287C96.1472 10.6493 95.7718 10.1168 95.2733 9.73118C94.7748 9.34557 94.1532 9.15277 93.4085 9.15277C92.6946 9.15277 92.0884 9.33945 91.5899 9.71282C91.0914 10.0862 90.713 10.6095 90.4545 11.2828C90.2022 11.9561 90.076 12.7487 90.076 13.6607Z" fill="white"/>
<path d="M103.046 26V6.60962H106.333V8.94161H106.526C106.699 8.59885 106.942 8.23467 107.256 7.84906C107.57 7.45734 107.994 7.12376 108.53 6.84833C109.065 6.56678 109.748 6.426 110.579 6.426C111.675 6.426 112.662 6.70449 113.542 7.26148C114.429 7.81234 115.13 8.62945 115.647 9.71282C116.17 10.7901 116.432 12.1121 116.432 13.679C116.432 15.2276 116.176 16.5435 115.666 17.6269C115.155 18.7102 114.459 19.5365 113.579 20.1058C112.699 20.675 111.702 20.9596 110.588 20.9596C109.776 20.9596 109.102 20.8249 108.567 20.5556C108.031 20.2863 107.6 19.9619 107.274 19.5824C106.954 19.1968 106.705 18.8327 106.526 18.4899H106.388V26H103.046ZM106.323 13.6607C106.323 14.5727 106.453 15.3714 106.711 16.0569C106.976 16.7424 107.354 17.278 107.847 17.6636C108.345 18.0431 108.948 18.2328 109.656 18.2328C110.394 18.2328 111.013 18.037 111.511 17.6452C112.01 17.2474 112.385 16.7057 112.638 16.0202C112.896 15.3286 113.025 14.542 113.025 13.6607C113.025 12.7854 112.899 12.0081 112.647 11.3287C112.395 10.6493 112.019 10.1168 111.521 9.73118C111.022 9.34557 110.401 9.15277 109.656 9.15277C108.942 9.15277 108.336 9.33945 107.837 9.71282C107.339 10.0862 106.96 10.6095 106.702 11.2828C106.45 11.9561 106.323 12.7487 106.323 13.6607Z" fill="white"/>
<path d="M125.479 20.9871C124.094 20.9871 122.894 20.6842 121.878 20.0782C120.863 19.4723 120.075 18.6246 119.515 17.5351C118.961 16.4456 118.684 15.1725 118.684 13.7158C118.684 12.259 118.961 10.9829 119.515 9.88726C120.075 8.79165 120.863 7.94087 121.878 7.33493C122.894 6.72898 124.094 6.426 125.479 6.426C126.863 6.426 128.063 6.72898 129.079 7.33493C130.094 7.94087 130.879 8.79165 131.433 9.88726C131.993 10.9829 132.273 12.259 132.273 13.7158C132.273 15.1725 131.993 16.4456 131.433 17.5351C130.879 18.6246 130.094 19.4723 129.079 20.0782C128.063 20.6842 126.863 20.9871 125.479 20.9871ZM125.497 18.3246C126.248 18.3246 126.876 18.1196 127.38 17.7095C127.885 17.2933 128.26 16.7363 128.507 16.0386C128.759 15.3408 128.885 14.5635 128.885 13.7066C128.885 12.8436 128.759 12.0632 128.507 11.3654C128.26 10.6615 127.885 10.1015 127.38 9.68527C126.876 9.26907 126.248 9.06096 125.497 9.06096C124.728 9.06096 124.088 9.26907 123.577 9.68527C123.072 10.1015 122.694 10.6615 122.441 11.3654C122.195 12.0632 122.072 12.8436 122.072 13.7066C122.072 14.5635 122.195 15.3408 122.441 16.0386C122.694 16.7363 123.072 17.2933 123.577 17.7095C124.088 18.1196 124.728 18.3246 125.497 18.3246Z" fill="white"/>
<path d="M135.725 18.8239V18.5422H137.414V18.8239H136.733V20.7117H136.405V18.8239H135.725Z" fill="white"/>
<path d="M137.787 18.5422H138.186L138.881 20.2287H138.906L139.601 18.5422H140V20.7117H139.687V19.1418H139.667L139.023 20.7085H138.763L138.12 19.1407H138.1V20.7117H137.787V18.5422Z" fill="white"/>
<path fill-rule="evenodd" clip-rule="evenodd" d="M150 3C150 1.34315 151.343 0 153 0H181C182.657 0 184 1.34315 184 3V17.8C184 19.4569 182.657 20.8 181 20.8H153C151.343 20.8 150 19.4569 150 17.8V3ZM162.345 20.8V26H156.679V20.8H162.345ZM177.321 26V20.8H171.655V26H177.321Z" fill="white"/>
</svg>
