<svg width="264" height="61" viewBox="0 0 264 61" fill="none" xmlns="http://www.w3.org/2000/svg">
<path d="M25.3741 14.8355H20.3481C20.2048 14.0168 19.9405 13.2916 19.5552 12.6598C19.17 12.019 18.6907 11.4762 18.1173 11.0313C17.544 10.5863 16.89 10.2526 16.1553 10.0302C15.4297 9.79879 14.6457 9.6831 13.8036 9.6831C12.3075 9.6831 10.9815 10.0569 9.82583 10.8044C8.67013 11.543 7.76528 12.6286 7.11127 14.0613C6.45727 15.4851 6.13027 17.2249 6.13027 19.2805C6.13027 21.3717 6.45727 23.1337 7.11127 24.5664C7.77424 25.9902 8.67909 27.067 9.82583 27.7967C10.9815 28.5175 12.303 28.8779 13.7902 28.8779C14.6144 28.8779 15.3849 28.7711 16.1016 28.5576C16.8272 28.3351 17.4768 28.0103 18.0501 27.5831C18.6325 27.156 19.1207 26.631 19.5149 26.008C19.9181 25.3851 20.1958 24.6732 20.3481 23.8723L25.3741 23.899C25.1859 25.1982 24.7783 26.4174 24.1512 27.5564C23.533 28.6955 22.7222 29.7011 21.7188 30.5731C20.7154 31.4363 19.5418 32.1126 18.198 32.6021C16.8541 33.0826 15.3625 33.3229 13.723 33.3229C11.3041 33.3229 9.14495 32.7667 7.24566 31.6544C5.34636 30.542 3.85022 28.9358 2.75723 26.8356C1.66424 24.7355 1.11774 22.2171 1.11774 19.2805C1.11774 16.335 1.66872 13.8166 2.77067 11.7254C3.87262 9.62526 5.37324 8.01902 7.27254 6.90666C9.17183 5.7943 11.322 5.23813 13.723 5.23813C15.255 5.23813 16.6794 5.4517 17.9964 5.87884C19.3134 6.30599 20.487 6.93336 21.5173 7.76095C22.5475 8.57964 23.3942 9.58521 24.0571 10.7777C24.729 11.9612 25.168 13.3138 25.3741 14.8355Z" fill="#5FB057"/>
<path d="M35.6645 33.3629C34.3565 33.3629 33.1784 33.1316 32.1302 32.6688C31.091 32.1972 30.2668 31.5031 29.6576 30.5865C29.0573 29.6699 28.7572 28.5398 28.7572 27.196C28.7572 26.0392 28.9722 25.0826 29.4022 24.3262C29.8323 23.5698 30.4191 22.9646 31.1627 22.5108C31.9063 22.0569 32.7439 21.7143 33.6757 21.483C34.6164 21.2427 35.5884 21.0692 36.5918 20.9624C37.8013 20.8378 38.7823 20.7266 39.5348 20.6287C40.2874 20.5219 40.8339 20.3617 41.1743 20.1481C41.5237 19.9257 41.6984 19.5831 41.6984 19.1203V19.0402C41.6984 18.0347 41.3983 17.256 40.798 16.7043C40.1978 16.1526 39.3332 15.8767 38.2044 15.8767C37.0129 15.8767 36.0677 16.1348 35.3689 16.6509C34.6791 17.167 34.2132 17.7766 33.9713 18.4796L29.4291 17.8389C29.7875 16.5931 30.3788 15.5519 31.203 14.7154C32.0272 13.87 33.0351 13.2382 34.2266 12.8199C35.4182 12.3928 36.7351 12.1792 38.1775 12.1792C39.172 12.1792 40.1619 12.2949 41.1474 12.5263C42.1329 12.7577 43.0333 13.1403 43.8485 13.6742C44.6638 14.1993 45.3178 14.9156 45.8106 15.8233C46.3123 16.731 46.5631 17.8656 46.5631 19.2271V32.9491H41.8865V30.1327H41.7253C41.4296 30.7022 41.013 31.2361 40.4755 31.7344C39.9469 32.2239 39.2795 32.6199 38.4732 32.9224C37.6758 33.2161 36.7396 33.3629 35.6645 33.3629ZM36.9278 29.8123C37.9043 29.8123 38.7509 29.621 39.4676 29.2383C40.1843 28.8468 40.7353 28.3306 41.1205 27.6899C41.5147 27.0492 41.7118 26.3506 41.7118 25.5942V23.1782C41.5595 23.3028 41.2997 23.4185 40.9324 23.5253C40.5741 23.632 40.1709 23.7255 39.7229 23.8056C39.275 23.8857 38.8315 23.9569 38.3925 24.0191C37.9536 24.0814 37.5728 24.1348 37.2503 24.1793C36.5246 24.2772 35.8751 24.4374 35.3017 24.6599C34.7283 24.8823 34.2759 25.1938 33.9444 25.5942C33.6129 25.9858 33.4472 26.493 33.4472 27.1159C33.4472 28.0058 33.7742 28.6777 34.4282 29.1315C35.0822 29.5854 35.9154 29.8123 36.9278 29.8123Z" fill="#5FB057"/>
<path d="M51.4547 32.9491V12.4462H56.1716V15.8633H56.3866C56.7629 14.6798 57.4079 13.7677 58.3217 13.127C59.2445 12.4773 60.2972 12.1525 61.4797 12.1525C61.7485 12.1525 62.0486 12.1659 62.3801 12.1926C62.7206 12.2104 63.0028 12.2415 63.2267 12.286V16.731C63.0207 16.6598 62.6937 16.5975 62.2457 16.5441C61.8067 16.4818 61.3812 16.4507 60.9691 16.4507C60.0821 16.4507 59.2848 16.642 58.577 17.0246C57.8782 17.3984 57.3273 17.919 56.9241 18.5864C56.521 19.2538 56.3194 20.0236 56.3194 20.8956V32.9491H51.4547Z" fill="#5FB057"/>
<path d="M73.2686 33.3095C71.647 33.3095 70.1957 32.8957 68.9146 32.0681C67.6334 31.2406 66.6211 30.0392 65.8775 28.4641C65.1339 26.889 64.7621 24.9758 64.7621 22.7244C64.7621 20.4463 65.1384 18.5241 65.8909 16.9579C66.6524 15.3828 67.6782 14.1948 68.9683 13.3939C70.2584 12.5841 71.6963 12.1792 73.282 12.1792C74.4915 12.1792 75.4859 12.3839 76.2654 12.7932C77.0448 13.1937 77.663 13.6787 78.1199 14.2482C78.5768 14.8088 78.9306 15.3383 79.1815 15.8367H79.3831V5.61188H84.2612V32.9491H79.4771V29.7189H79.1815C78.9306 30.2172 78.5678 30.7467 78.093 31.3073C77.6182 31.859 76.991 32.3307 76.2116 32.7222C75.4322 33.1138 74.4512 33.3095 73.2686 33.3095ZM74.6259 29.3451C75.6562 29.3451 76.5341 29.0692 77.2598 28.5175C77.9855 27.9569 78.5365 27.1782 78.9127 26.1816C79.289 25.1849 79.4771 24.0236 79.4771 22.6977C79.4771 21.3717 79.289 20.2193 78.9127 19.2405C78.5454 18.2616 77.9989 17.5007 77.2732 16.9579C76.5565 16.4151 75.6741 16.1437 74.6259 16.1437C73.5418 16.1437 72.637 16.424 71.9113 16.9846C71.1856 17.5452 70.6391 18.3194 70.2718 19.3072C69.9045 20.295 69.7209 21.4251 69.7209 22.6977C69.7209 23.9791 69.9045 25.1226 70.2718 26.1282C70.6481 27.1248 71.1991 27.9124 71.9248 28.4908C72.6594 29.0603 73.5598 29.3451 74.6259 29.3451Z" fill="#5FB057"/>
<path d="M89.6601 32.9491V5.61188H94.6457V17.1848H107.399V5.61188H112.398V32.9491H107.399V21.3361H94.6457V32.9491H89.6601Z" fill="#5FB057"/>
<path d="M117.605 32.9491V12.4462H122.47V32.9491H117.605ZM120.051 9.53627C119.281 9.53627 118.618 9.28265 118.062 8.77542C117.507 8.25928 117.229 7.64081 117.229 6.92001C117.229 6.1903 117.507 5.57183 118.062 5.0646C118.618 4.54847 119.281 4.2904 120.051 4.2904C120.83 4.2904 121.493 4.54847 122.04 5.0646C122.595 5.57183 122.873 6.1903 122.873 6.92001C122.873 7.64081 122.595 8.25928 122.04 8.77542C121.493 9.28265 120.83 9.53627 120.051 9.53627Z" fill="#5FB057"/>
<path d="M127.472 40.6377V12.4462H132.257V15.8367H132.539C132.79 15.3383 133.143 14.8088 133.6 14.2482C134.057 13.6787 134.675 13.1937 135.455 12.7932C136.234 12.3839 137.229 12.1792 138.438 12.1792C140.033 12.1792 141.471 12.5841 142.752 13.3939C144.042 14.1948 145.063 15.3828 145.816 16.9579C146.577 18.5241 146.958 20.4463 146.958 22.7244C146.958 24.9758 146.586 26.889 145.843 28.4641C145.099 30.0392 144.087 31.2406 142.806 32.0681C141.525 32.8957 140.073 33.3095 138.452 33.3095C137.269 33.3095 136.288 33.1138 135.509 32.7222C134.729 32.3307 134.102 31.859 133.627 31.3073C133.161 30.7467 132.799 30.2172 132.539 29.7189H132.337V40.6377H127.472ZM132.243 22.6977C132.243 24.0236 132.431 25.1849 132.807 26.1816C133.193 27.1782 133.744 27.9569 134.46 28.5175C135.186 29.0692 136.064 29.3451 137.094 29.3451C138.169 29.3451 139.07 29.0603 139.795 28.4908C140.521 27.9124 141.068 27.1248 141.435 26.1282C141.811 25.1226 141.999 23.9791 141.999 22.6977C141.999 21.4251 141.816 20.295 141.448 19.3072C141.081 18.3194 140.535 17.5452 139.809 16.9846C139.083 16.424 138.178 16.1437 137.094 16.1437C136.055 16.1437 135.173 16.4151 134.447 16.9579C133.721 17.5007 133.17 18.2616 132.794 19.2405C132.427 20.2193 132.243 21.3717 132.243 22.6977Z" fill="#5FB057"/>
<path d="M151.124 40.6377V12.4462H155.908V15.8367H156.19C156.441 15.3383 156.795 14.8088 157.252 14.2482C157.709 13.6787 158.327 13.1937 159.106 12.7932C159.886 12.3839 160.88 12.1792 162.09 12.1792C163.684 12.1792 165.122 12.5841 166.404 13.3939C167.694 14.1948 168.715 15.3828 169.467 16.9579C170.229 18.5241 170.61 20.4463 170.61 22.7244C170.61 24.9758 170.238 26.889 169.494 28.4641C168.751 30.0392 167.738 31.2406 166.457 32.0681C165.176 32.8957 163.725 33.3095 162.103 33.3095C160.921 33.3095 159.94 33.1138 159.16 32.7222C158.381 32.3307 157.754 31.859 157.279 31.3073C156.813 30.7467 156.45 30.2172 156.19 29.7189H155.989V40.6377H151.124ZM155.895 22.6977C155.895 24.0236 156.083 25.1849 156.459 26.1816C156.844 27.1782 157.395 27.9569 158.112 28.5175C158.838 29.0692 159.716 29.3451 160.746 29.3451C161.821 29.3451 162.721 29.0603 163.447 28.4908C164.173 27.9124 164.719 27.1248 165.087 26.1282C165.463 25.1226 165.651 23.9791 165.651 22.6977C165.651 21.4251 165.467 20.295 165.1 19.3072C164.733 18.3194 164.186 17.5452 163.461 16.9846C162.735 16.424 161.83 16.1437 160.746 16.1437C159.707 16.1437 158.824 16.4151 158.099 16.9579C157.373 17.5007 156.822 18.2616 156.446 19.2405C156.078 20.2193 155.895 21.3717 155.895 22.6977Z" fill="#5FB057"/>
<path d="M183.779 33.3496C181.764 33.3496 180.017 32.9091 178.538 32.0281C177.06 31.1471 175.913 29.9146 175.098 28.3306C174.292 26.7466 173.889 24.8957 173.889 22.7778C173.889 20.6598 174.292 18.8044 175.098 17.2115C175.913 15.6186 177.06 14.3817 178.538 13.5007C180.017 12.6197 181.764 12.1792 183.779 12.1792C185.795 12.1792 187.542 12.6197 189.02 13.5007C190.499 14.3817 191.641 15.6186 192.447 17.2115C193.262 18.8044 193.67 20.6598 193.67 22.7778C193.67 24.8957 193.262 26.7466 192.447 28.3306C191.641 29.9146 190.499 31.1471 189.02 32.0281C187.542 32.9091 185.795 33.3496 183.779 33.3496ZM183.806 29.4786C184.899 29.4786 185.813 29.1805 186.548 28.5843C187.282 27.9791 187.829 27.1693 188.187 26.1549C188.555 25.1404 188.738 24.0102 188.738 22.7644C188.738 21.5097 188.555 20.3751 188.187 19.3606C187.829 18.3372 187.282 17.523 186.548 16.9179C185.813 16.3127 184.899 16.0102 183.806 16.0102C182.686 16.0102 181.755 16.3127 181.011 16.9179C180.276 17.523 179.725 18.3372 179.358 19.3606C179 20.3751 178.821 21.5097 178.821 22.7644C178.821 24.0102 179 25.1404 179.358 26.1549C179.725 27.1693 180.276 27.9791 181.011 28.5843C181.755 29.1805 182.686 29.4786 183.806 29.4786Z" fill="#5FB057"/>
<path d="M0 48.7744V47.3315H10.1424V48.7744H5.88997V60.7639H4.2524V48.7744H0Z" fill="#5FB057"/>
<path d="M14.0167 54.7035V60.7639H12.4584V47.3315H14.0167V52.2637H14.1488C14.3865 51.7433 14.7431 51.3301 15.2185 51.0241C15.6983 50.7136 16.3366 50.5584 17.1334 50.5584C17.8245 50.5584 18.4298 50.6961 18.9492 50.9716C19.4687 51.2427 19.8715 51.6603 20.1576 52.2243C20.4482 52.784 20.5934 53.4967 20.5934 54.3625V60.7639H19.0351V54.4674C19.0351 53.6673 18.826 53.0485 18.4078 52.6113C17.994 52.1697 17.4195 51.9489 16.6844 51.9489C16.1737 51.9489 15.7159 52.056 15.3109 52.2702C14.9103 52.4845 14.5934 52.7971 14.3601 53.2081C14.1312 53.6192 14.0167 54.1176 14.0167 54.7035Z" fill="#5FB057"/>
<path d="M27.6967 60.9738C26.7194 60.9738 25.8764 60.7595 25.1677 60.331C24.4634 59.8981 23.9197 59.2947 23.5368 58.5208C23.1582 57.7425 22.9689 56.8373 22.9689 55.8054C22.9689 54.7735 23.1582 53.864 23.5368 53.077C23.9197 52.2855 24.4524 51.669 25.1347 51.2274C25.8214 50.7814 26.6226 50.5584 27.5382 50.5584C28.0665 50.5584 28.5881 50.6458 29.1032 50.8207C29.6182 50.9956 30.087 51.2799 30.5096 51.6734C30.9322 52.0625 31.269 52.5785 31.5199 53.2213C31.7708 53.864 31.8963 54.6555 31.8963 55.5956V56.2514H24.0782V54.9134H30.3115C30.3115 54.345 30.1971 53.8378 29.9682 53.3918C29.7437 52.9458 29.4223 52.5938 29.0041 52.3358C28.5903 52.0778 28.1017 51.9489 27.5382 51.9489C26.9175 51.9489 26.3805 52.1019 25.9271 52.408C25.4781 52.7097 25.1325 53.1032 24.8904 53.5886C24.6483 54.0739 24.5272 54.5942 24.5272 55.1495V56.0415C24.5272 56.8024 24.6593 57.4473 24.9234 57.9764C25.1919 58.5011 25.5639 58.9012 26.0393 59.1767C26.5147 59.4478 27.0672 59.5833 27.6967 59.5833C28.1061 59.5833 28.4759 59.5265 28.806 59.4128C29.1406 59.2947 29.4289 59.1198 29.671 58.8881C29.9131 58.652 30.1002 58.359 30.2323 58.0092L31.7378 58.429C31.5793 58.9362 31.313 59.3822 30.9388 59.767C30.5646 60.1474 30.1024 60.4447 29.5522 60.6589C29.0019 60.8688 28.3834 60.9738 27.6967 60.9738Z" fill="#5FB057"/>
<path d="M47.1032 50.6896C47.024 50.0249 46.7026 49.509 46.1392 49.1417C45.5757 48.7744 44.8846 48.5907 44.0658 48.5907C43.4671 48.5907 42.9433 48.6869 42.4943 48.8793C42.0496 49.0717 41.7019 49.3363 41.451 49.6729C41.2044 50.0096 41.0812 50.3922 41.0812 50.8207C41.0812 51.1793 41.167 51.4875 41.3387 51.7455C41.5148 51.9991 41.7393 52.2112 42.0122 52.3817C42.2851 52.5479 42.5713 52.6856 42.8706 52.7949C43.17 52.8999 43.4451 52.9851 43.696 53.0507L45.0695 53.418C45.4216 53.5098 45.8134 53.6367 46.2448 53.7984C46.6806 53.9602 47.0966 54.181 47.4928 54.4609C47.8934 54.7363 48.2235 55.0905 48.4833 55.5234C48.743 55.9563 48.8728 56.4875 48.8728 57.1172C48.8728 57.843 48.6814 58.4989 48.2984 59.0848C47.9198 59.6708 47.3651 60.1364 46.6344 60.4819C45.9081 60.8273 45.0254 61 43.9865 61C43.0181 61 42.1795 60.8448 41.4708 60.5343C40.7664 60.2239 40.2118 59.791 39.8068 59.2357C39.4062 58.6804 39.1795 58.0354 39.1267 57.3008H40.8171C40.8611 57.8081 41.0328 58.2278 41.3321 58.5601C41.6358 58.8881 42.0188 59.1329 42.481 59.2947C42.9477 59.4521 43.4495 59.5308 43.9865 59.5308C44.6116 59.5308 45.1729 59.4303 45.6703 59.2291C46.1678 59.0236 46.5618 58.7394 46.8523 58.3765C47.1428 58.0092 47.2881 57.5807 47.2881 57.091C47.2881 56.645 47.1626 56.282 46.9117 56.0022C46.6608 55.7224 46.3307 55.495 45.9213 55.3201C45.5119 55.1452 45.0695 54.9921 44.594 54.861L42.9301 54.3887C41.8736 54.087 41.0372 53.6563 40.4209 53.0966C39.8046 52.537 39.4964 51.8046 39.4964 50.8994C39.4964 50.1474 39.7011 49.4915 40.1105 48.9318C40.5243 48.3677 41.079 47.9305 41.7745 47.62C42.4744 47.3052 43.2558 47.1478 44.1186 47.1478C44.9902 47.1478 45.765 47.303 46.4429 47.6135C47.1208 47.9196 47.6579 48.3393 48.0541 48.8728C48.4546 49.4062 48.666 50.0118 48.688 50.6896H47.1032Z" fill="#5FB057"/>
<path d="M51.354 60.7639V50.6896H52.8595V52.2637H52.9915C53.2028 51.7259 53.544 51.3083 54.015 51.0109C54.486 50.7092 55.0517 50.5584 55.712 50.5584C56.3811 50.5584 56.938 50.7092 57.3826 51.0109C57.8316 51.3083 58.1816 51.7259 58.4325 52.2637H58.5381C58.7979 51.7433 59.1874 51.3301 59.7069 51.0241C60.2263 50.7136 60.8492 50.5584 61.5756 50.5584C62.4824 50.5584 63.2241 50.8404 63.8008 51.4045C64.3775 51.9642 64.6658 52.8365 64.6658 54.0214V60.7639H63.1075V54.0214C63.1075 53.2781 62.9028 52.7468 62.4934 52.4276C62.084 52.1085 61.602 51.9489 61.0473 51.9489C60.3342 51.9489 59.7817 52.1631 59.3899 52.5916C58.9981 53.0158 58.8023 53.5536 58.8023 54.2051V60.7639H57.2175V53.864C57.2175 53.2912 57.0304 52.8299 56.6563 52.4801C56.2821 52.1259 55.8001 51.9489 55.2102 51.9489C54.8052 51.9489 54.4266 52.056 54.0744 52.2702C53.7267 52.4845 53.4449 52.7818 53.2292 53.1622C53.0179 53.5383 52.9123 53.9733 52.9123 54.4674V60.7639H51.354Z" fill="#5FB057"/>
<path d="M70.4996 61C69.8569 61 69.2737 60.8798 68.7498 60.6393C68.226 60.3944 67.81 60.0424 67.5018 59.5833C67.1937 59.1198 67.0396 58.5601 67.0396 57.9043C67.0396 57.3271 67.1541 56.8592 67.383 56.5007C67.6119 56.1377 67.9178 55.8535 68.3008 55.648C68.6838 55.4425 69.1064 55.2895 69.5686 55.1889C70.0352 55.084 70.504 55.0009 70.9751 54.9397C71.5914 54.861 72.091 54.8019 72.474 54.7626C72.8614 54.7189 73.1431 54.6467 73.3192 54.5461C73.4997 54.4456 73.5899 54.2707 73.5899 54.0214V53.969C73.5899 53.3218 73.4116 52.819 73.055 52.4604C72.7029 52.1019 72.168 51.9226 71.4505 51.9226C70.7065 51.9226 70.1233 52.0844 69.7007 52.408C69.2781 52.7315 68.9809 53.077 68.8093 53.4443L67.3302 52.9196C67.5943 52.3074 67.9464 51.8308 68.3867 51.4897C68.8313 51.1443 69.3155 50.9038 69.8393 50.7683C70.3676 50.6283 70.887 50.5584 71.3977 50.5584C71.7234 50.5584 72.0976 50.5977 72.5202 50.6764C72.9472 50.7508 73.3588 50.906 73.755 51.1421C74.1556 51.3782 74.4879 51.7346 74.752 52.2112C75.0162 52.6878 75.1482 53.3262 75.1482 54.1264V60.7639H73.5899V59.3997H73.5107C73.405 59.6183 73.2289 59.8522 72.9824 60.1014C72.7359 60.3507 72.408 60.5627 71.9986 60.7376C71.5892 60.9125 71.0895 61 70.4996 61ZM70.7374 59.6095C71.3536 59.6095 71.8731 59.4893 72.2957 59.2488C72.7227 59.0083 73.044 58.6979 73.2597 58.3175C73.4798 57.937 73.5899 57.5369 73.5899 57.1172V55.7005C73.5239 55.7792 73.3786 55.8513 73.1541 55.9169C72.934 55.9781 72.6787 56.0328 72.3881 56.0809C72.102 56.1246 71.8225 56.164 71.5495 56.199C71.281 56.2296 71.0631 56.2558 70.8958 56.2777C70.4908 56.3301 70.1123 56.4154 69.7601 56.5335C69.4123 56.6471 69.1306 56.8199 68.9149 57.0516C68.7036 57.279 68.598 57.5894 68.598 57.983C68.598 58.5208 68.7982 58.9274 69.1988 59.2029C69.6038 59.474 70.1167 59.6095 70.7374 59.6095Z" fill="#5FB057"/>
<path d="M77.9925 60.7639V50.6896H79.498V52.2112H79.6037C79.7886 51.7127 80.1231 51.3083 80.6073 50.9978C81.0916 50.6874 81.6374 50.5321 82.2449 50.5321C82.3594 50.5321 82.5024 50.5343 82.6741 50.5387C82.8458 50.5431 82.9757 50.5496 83.0637 50.5584V52.1325C83.0109 52.1194 82.8898 52.0997 82.7005 52.0735C82.5156 52.0429 82.3197 52.0276 82.1129 52.0276C81.6198 52.0276 81.1796 52.1303 80.7922 52.3358C80.4092 52.537 80.1055 52.8168 79.881 53.1753C79.6609 53.5295 79.5508 53.934 79.5508 54.3887V60.7639H77.9925Z" fill="#5FB057"/>
<path d="M89.9573 50.6896V52.0013H84.7013V50.6896H89.9573ZM86.2332 48.2759H87.7915V57.878C87.7915 58.3153 87.8553 58.6432 87.983 58.8618C88.1151 59.0761 88.2824 59.2204 88.4848 59.2947C88.6917 59.3647 88.9096 59.3997 89.1385 59.3997C89.3102 59.3997 89.4511 59.3909 89.5611 59.3734C89.6712 59.3516 89.7592 59.3341 89.8253 59.3209L90.1422 60.7114C90.0366 60.7508 89.8891 60.7901 89.6998 60.8295C89.5105 60.8732 89.2706 60.8951 88.9801 60.8951C88.5399 60.8951 88.1085 60.8011 87.6859 60.613C87.2677 60.425 86.9199 60.1386 86.6426 59.7538C86.3697 59.369 86.2332 58.8837 86.2332 58.2978V48.2759Z" fill="#5FB057"/>
<path d="M96.4449 60.9738C95.4676 60.9738 94.6246 60.7595 93.9159 60.331C93.2116 59.8981 92.6679 59.2947 92.2849 58.5208C91.9063 57.7425 91.7171 56.8373 91.7171 55.8054C91.7171 54.7735 91.9063 53.864 92.2849 53.077C92.6679 52.2855 93.2006 51.669 93.8829 51.2274C94.5696 50.7814 95.3708 50.5584 96.2864 50.5584C96.8147 50.5584 97.3363 50.6458 97.8513 50.8207C98.3664 50.9956 98.8352 51.2799 99.2578 51.6734C99.6804 52.0625 100.017 52.5785 100.268 53.2213C100.519 53.864 100.644 54.6555 100.644 55.5956V56.2514H92.8264V54.9134H99.0597C99.0597 54.345 98.9453 53.8378 98.7163 53.3918C98.4918 52.9458 98.1705 52.5938 97.7523 52.3358C97.3385 52.0778 96.8499 51.9489 96.2864 51.9489C95.6657 51.9489 95.1287 52.1019 94.6752 52.408C94.2262 52.7097 93.8807 53.1032 93.6386 53.5886C93.3964 54.0739 93.2754 54.5942 93.2754 55.1495V56.0415C93.2754 56.8024 93.4075 57.4473 93.6716 57.9764C93.9401 58.5011 94.3121 58.9012 94.7875 59.1767C95.2629 59.4478 95.8154 59.5833 96.4449 59.5833C96.8543 59.5833 97.224 59.5265 97.5542 59.4128C97.8888 59.2947 98.1771 59.1198 98.4192 58.8881C98.6613 58.652 98.8484 58.359 98.9805 58.0092L100.486 58.429C100.327 58.9362 100.061 59.3822 99.687 59.767C99.3128 60.1474 98.8506 60.4447 98.3004 60.6589C97.7501 60.8688 97.1316 60.9738 96.4449 60.9738Z" fill="#5FB057"/>
<path d="M110.199 52.9458L108.799 53.3393C108.711 53.1076 108.581 52.8824 108.41 52.6638C108.242 52.4408 108.014 52.2571 107.723 52.1128C107.432 51.9685 107.06 51.8964 106.607 51.8964C105.986 51.8964 105.469 52.0385 105.055 52.3227C104.646 52.6025 104.441 52.9589 104.441 53.3918C104.441 53.7766 104.582 54.0805 104.864 54.3035C105.146 54.5265 105.586 54.7123 106.184 54.861L107.69 55.2283C108.597 55.4469 109.272 55.7814 109.717 56.2318C110.162 56.6777 110.384 57.2527 110.384 57.9567C110.384 58.5339 110.217 59.0499 109.882 59.5046C109.552 59.9593 109.09 60.3179 108.496 60.5802C107.901 60.8426 107.21 60.9738 106.422 60.9738C105.388 60.9738 104.531 60.7508 103.854 60.3048C103.176 59.8588 102.746 59.2073 102.566 58.3502L104.045 57.983C104.186 58.5251 104.452 58.9318 104.844 59.2029C105.24 59.474 105.757 59.6095 106.396 59.6095C107.122 59.6095 107.699 59.4565 108.126 59.1504C108.557 58.84 108.773 58.4683 108.773 58.0354C108.773 57.6856 108.65 57.3927 108.403 57.1565C108.157 56.9161 107.778 56.7368 107.267 56.6187L105.577 56.2252C104.648 56.0066 103.966 55.6677 103.53 55.2086C103.099 54.7451 102.883 54.1657 102.883 53.4705C102.883 52.9021 103.044 52.3992 103.365 51.962C103.691 51.5247 104.133 51.1815 104.692 50.9322C105.256 50.683 105.894 50.5584 106.607 50.5584C107.611 50.5584 108.399 50.777 108.971 51.2143C109.548 51.6515 109.957 52.2287 110.199 52.9458Z" fill="#5FB057"/>
<path d="M117.141 50.6896V52.0013H111.885V50.6896H117.141ZM113.416 48.2759H114.975V57.878C114.975 58.3153 115.039 58.6432 115.166 58.8618C115.298 59.0761 115.466 59.2204 115.668 59.2947C115.875 59.3647 116.093 59.3997 116.322 59.3997C116.494 59.3997 116.634 59.3909 116.744 59.3734C116.855 59.3516 116.943 59.3341 117.009 59.3209L117.326 60.7114C117.22 60.7508 117.072 60.7901 116.883 60.8295C116.694 60.8732 116.454 60.8951 116.163 60.8951C115.723 60.8951 115.292 60.8011 114.869 60.613C114.451 60.425 114.103 60.1386 113.826 59.7538C113.553 59.369 113.416 58.8837 113.416 58.2978V48.2759Z" fill="#5FB057"/>
<path d="M127.382 60.7639L123.684 47.3315H125.348L128.174 58.2715H128.306L131.185 47.3315H133.034L135.913 58.2715H136.045L138.871 47.3315H140.535L136.838 60.7639H135.147L132.163 50.0599H132.057L129.072 60.7639H127.382Z" fill="#5FB057"/>
<path d="M144.405 61C143.762 61 143.179 60.8798 142.655 60.6393C142.131 60.3944 141.715 60.0424 141.407 59.5833C141.099 59.1198 140.945 58.5601 140.945 57.9043C140.945 57.3271 141.059 56.8592 141.288 56.5007C141.517 56.1377 141.823 55.8535 142.206 55.648C142.589 55.4425 143.012 55.2895 143.474 55.1889C143.94 55.084 144.409 55.0009 144.88 54.9397C145.497 54.861 145.996 54.8019 146.379 54.7626C146.767 54.7189 147.048 54.6467 147.224 54.5461C147.405 54.4456 147.495 54.2707 147.495 54.0214V53.969C147.495 53.3218 147.317 52.819 146.96 52.4604C146.608 52.1019 146.073 51.9226 145.356 51.9226C144.612 51.9226 144.028 52.0844 143.606 52.408C143.183 52.7315 142.886 53.077 142.714 53.4443L141.235 52.9196C141.499 52.3074 141.852 51.8308 142.292 51.4897C142.736 51.1443 143.221 50.9038 143.745 50.7683C144.273 50.6283 144.792 50.5584 145.303 50.5584C145.629 50.5584 146.003 50.5977 146.425 50.6764C146.852 50.7508 147.264 50.906 147.66 51.1421C148.061 51.3782 148.393 51.7346 148.657 52.2112C148.921 52.6878 149.053 53.3262 149.053 54.1264V60.7639H147.495V59.3997H147.416C147.31 59.6183 147.134 59.8522 146.888 60.1014C146.641 60.3507 146.313 60.5627 145.904 60.7376C145.494 60.9125 144.995 61 144.405 61ZM144.643 59.6095C145.259 59.6095 145.778 59.4893 146.201 59.2488C146.628 59.0083 146.949 58.6979 147.165 58.3175C147.385 57.937 147.495 57.5369 147.495 57.1172V55.7005C147.429 55.7792 147.284 55.8513 147.059 55.9169C146.839 55.9781 146.584 56.0328 146.293 56.0809C146.007 56.1246 145.728 56.164 145.455 56.199C145.186 56.2296 144.968 56.2558 144.801 56.2777C144.396 56.3301 144.017 56.4154 143.665 56.5335C143.318 56.6471 143.036 56.8199 142.82 57.0516C142.609 57.279 142.503 57.5894 142.503 57.983C142.503 58.5208 142.703 58.9274 143.104 59.2029C143.509 59.474 144.022 59.6095 144.643 59.6095Z" fill="#5FB057"/>
<path d="M153.456 47.3315V60.7639H151.898V47.3315H153.456Z" fill="#5FB057"/>
<path d="M157.869 47.3315V60.7639H156.31V47.3315H157.869Z" fill="#5FB057"/>
<path d="M164.975 60.9738C163.998 60.9738 163.155 60.7595 162.446 60.331C161.742 59.8981 161.198 59.2947 160.815 58.5208C160.437 57.7425 160.247 56.8373 160.247 55.8054C160.247 54.7735 160.437 53.864 160.815 53.077C161.198 52.2855 161.731 51.669 162.413 51.2274C163.1 50.7814 163.901 50.5584 164.817 50.5584C165.345 50.5584 165.867 50.6458 166.382 50.8207C166.897 50.9956 167.365 51.2799 167.788 51.6734C168.211 52.0625 168.547 52.5785 168.798 53.2213C169.049 53.864 169.175 54.6555 169.175 55.5956V56.2514H161.357V54.9134H167.59C167.59 54.345 167.476 53.8378 167.247 53.3918C167.022 52.9458 166.701 52.5938 166.283 52.3358C165.869 52.0778 165.38 51.9489 164.817 51.9489C164.196 51.9489 163.659 52.1019 163.206 52.408C162.757 52.7097 162.411 53.1032 162.169 53.5886C161.927 54.0739 161.806 54.5942 161.806 55.1495V56.0415C161.806 56.8024 161.938 57.4473 162.202 57.9764C162.47 58.5011 162.842 58.9012 163.318 59.1767C163.793 59.4478 164.346 59.5833 164.975 59.5833C165.385 59.5833 165.754 59.5265 166.084 59.4128C166.419 59.2947 166.707 59.1198 166.949 58.8881C167.192 58.652 167.379 58.359 167.511 58.0092L169.016 58.429C168.858 58.9362 168.591 59.3822 168.217 59.767C167.843 60.1474 167.381 60.4447 166.831 60.6589C166.28 60.8688 165.662 60.9738 164.975 60.9738Z" fill="#5FB057"/>
<path d="M175.956 50.6896V52.0013H170.7V50.6896H175.956ZM172.232 48.2759H173.79V57.878C173.79 58.3153 173.854 58.6432 173.982 58.8618C174.114 59.0761 174.281 59.2204 174.484 59.2947C174.691 59.3647 174.908 59.3997 175.137 59.3997C175.309 59.3997 175.45 59.3909 175.56 59.3734C175.67 59.3516 175.758 59.3341 175.824 59.3209L176.141 60.7114C176.035 60.7508 175.888 60.7901 175.699 60.8295C175.509 60.8732 175.269 60.8951 174.979 60.8951C174.539 60.8951 174.107 60.8011 173.685 60.613C173.266 60.425 172.919 60.1386 172.641 59.7538C172.368 59.369 172.232 58.8837 172.232 58.2978V48.2759Z" fill="#5FB057"/>
<path d="M193.052 29.2445V28.9666H194.719V29.2445H194.047V31.106H193.723V29.2445H193.052Z" fill="#5FB057"/>
<path d="M195.087 28.9666H195.482L196.168 30.6297H196.193L196.879 28.9666H197.273V31.106H196.964V29.5579H196.944L196.309 31.1029H196.052L195.417 29.5568H195.397V31.106H195.087V28.9666Z" fill="#5FB057"/>
<path d="M208.717 4.24916C208.717 1.90242 210.632 0 212.995 0H259.722C262.085 0 264 1.90241 264 4.24916V29.7441C264 32.0909 262.085 33.9933 259.722 33.9933H253.141V42.4916H243.927V33.9933H228.79V42.4916H219.576V33.9933H212.995C210.632 33.9933 208.717 32.0909 208.717 29.7441V4.24916Z" fill="#5FB057"/>
</svg>
